/* XPM */
static char *commercium__[] = {
"16 16 66 1",
" 	c None",
".	c #23C3EC",
"+	c #26C7EA",
"@	c #28CAE9",
"#	c #2BCDE7",
"$	c #2DD0E6",
"%	c #2FD2E5",
"&	c #1EBEEE",
"*	c #21C0ED",
"=	c #23C3EB",
"-	c #29CAE8",
";	c #2ACDE7",
">	c #30D3E4",
",	c #19B6F1",
"'	c #1CBAF0",
")	c #1FBEEE",
"!	c #30D4E4",
"~	c #2ED0E6",
"{	c #1CBAEF",
"]	c #1FBDEE",
"^	c #2CCDE7",
"/	c #2ED1E6",
"(	c #17B4F2",
"_	c #1AB8F1",
":	c #21C2ED",
"<	c #24C4EB",
"[	c #28CAE8",
"}	c #15B1F4",
"|	c #21C1ED",
"1	c #2CCEE7",
"2	c #13AEF4",
"3	c #15B2F4",
"4	c #22C1EC",
"5	c #26C8EA",
"6	c #29CBE8",
"7	c #12ADF5",
"8	c #13AFF4",
"9	c #15B1F3",
"0	c #1DBCEF",
"a	c #1FBFED",
"b	c #24C5EB",
"c	c #27C8E9",
"d	c #11ADF6",
"e	c #13B0F4",
"f	c #17B3F3",
"g	c #25C5EB",
"h	c #1AB8F0",
"i	c #20BFEE",
"j	c #059DFC",
"k	c #08A0FB",
"l	c #0AA3F9",
"m	c #16B3F3",
"n	c #1BB9F0",
"o	c #049CFD",
"p	c #07A0FC",
"q	c #0AA4F9",
"r	c #0CA7F8",
"s	c #0FAAF7",
"t	c #11ADF5",
"u	c #14AFF4",
"v	c #16B2F3",
"w	c #07A0FB",
"x	c #09A3FA",
"y	c #0CA6F8",
"z	c #0EAAF7",
"A	c #11ACF5",
"                ",
"     .+@#$%     ",
"    &*=+-;$>    ",
"   ,')    #$!   ",
"            ~!  ",
"      {]*=  ^/> ",
"     (_  :<+[^/ ",
"     }(   |<+-1 ",
"     23   )4<56 ",
"     789 _0a4bc ",
"      def,  )4g ",
"           h0i  ",
"   jkl    m,n   ",
"    opqrstuv    ",
"     jwxyzA     ",
"                "};
