/* XPM */
static char *commercium__[] = {
"32 32 159 2",
"  	c None",
". 	c #25C5EB",
"+ 	c #27C7E9",
"@ 	c #27C8E9",
"# 	c #28CAE9",
"$ 	c #2ACCE7",
"% 	c #2ACDE7",
"& 	c #2CCFE6",
"* 	c #2ED0E6",
"= 	c #2FD2E5",
"- 	c #21C1ED",
"; 	c #23C3EC",
"> 	c #26C7E9",
", 	c #29CAE9",
"' 	c #29CCE7",
") 	c #2BCDE7",
"! 	c #2DCFE6",
"~ 	c #30D3E4",
"{ 	c #1EBDEE",
"] 	c #1FBEEE",
"^ 	c #20C0ED",
"/ 	c #23C3EB",
"( 	c #25C4EB",
"_ 	c #25C6EB",
": 	c #28C9E9",
"< 	c #28CBE9",
"[ 	c #2CCEE7",
"} 	c #2DCEE7",
"| 	c #2ED0E5",
"1 	c #31D5E4",
"2 	c #1CBAF0",
"3 	c #1DBCEF",
"4 	c #1FBFEE",
"5 	c #22C1ED",
"6 	c #24C3EB",
"7 	c #24C4EB",
"8 	c #2ED1E5",
"9 	c #1AB8F0",
"0 	c #20C1EC",
"a 	c #22C1EC",
"b 	c #24C3EC",
"c 	c #2ACAE9",
"d 	c #2BCCE7",
"e 	c #30D4E4",
"f 	c #32D5E3",
"g 	c #19B7F1",
"h 	c #1BB9F0",
"i 	c #19B8F1",
"j 	c #1CBBF0",
"k 	c #20BFEE",
"l 	c #23C1EC",
"m 	c #1CBAEF",
"n 	c #22C0EC",
"o 	c #23C2EC",
"p 	c #2DD0E6",
"q 	c #30D3E5",
"r 	c #1DBBEF",
"s 	c #1FBDEE",
"t 	c #24C4EC",
"u 	c #25C5EA",
"v 	c #29CAE8",
"w 	c #2ACBE8",
"x 	c #2CCEE6",
"y 	c #2FD1E5",
"z 	c #2FD3E5",
"A 	c #18B5F3",
"B 	c #19B6F1",
"C 	c #1AB8F1",
"D 	c #20BFED",
"E 	c #21C0EC",
"F 	c #26C7EA",
"G 	c #27C8EA",
"H 	c #29C9E8",
"I 	c #2BCDE8",
"J 	c #16B3F3",
"K 	c #18B5F2",
"L 	c #18B6F1",
"M 	c #21C0ED",
"N 	c #23C2EB",
"O 	c #25C7EA",
"P 	c #28C9EA",
"Q 	c #2BCCE8",
"R 	c #2BCEE6",
"S 	c #14B1F4",
"T 	c #14B1F3",
"U 	c #1FBEED",
"V 	c #22C0ED",
"W 	c #2ACCE8",
"X 	c #2BCFE6",
"Y 	c #12AFF5",
"Z 	c #16B2F4",
"` 	c #1EBEED",
" .	c #24C5EB",
"..	c #12ADF5",
"+.	c #12AFF4",
"@.	c #15B1F4",
"#.	c #1EBCEF",
"$.	c #22C3EB",
"%.	c #23C5EB",
"&.	c #29CBE8",
"*.	c #11ADF6",
"=.	c #13AFF4",
"-.	c #15B0F4",
";.	c #10ACF6",
">.	c #11ADF4",
",.	c #13B0F5",
"'.	c #19B7F2",
").	c #1AB9F0",
"!.	c #1EBCEE",
"~.	c #26C8E9",
"{.	c #11AEF5",
"].	c #16B2F3",
"^.	c #18B4F2",
"/.	c #19B6F2",
"(.	c #20C1ED",
"_.	c #10ABF6",
":.	c #15B1F3",
"<.	c #17B4F2",
"[.	c #19B5F2",
"}.	c #18B7F1",
"|.	c #11ACF6",
"1.	c #12AEF5",
"2.	c #14B0F4",
"3.	c #15B0F3",
"4.	c #07A0FB",
"5.	c #08A2FA",
"6.	c #09A4FA",
"7.	c #059DFC",
"8.	c #069FFC",
"9.	c #09A3FA",
"0.	c #0BA3FA",
"a.	c #17B5F2",
"b.	c #18B5F1",
"c.	c #1AB7F1",
"d.	c #049CFD",
"e.	c #059EFC",
"f.	c #07A1FB",
"g.	c #0AA2FA",
"h.	c #0BA4FA",
"i.	c #0BA6F8",
"j.	c #0CA6F8",
"k.	c #13AEF5",
"l.	c #14B0F5",
"m.	c #039BFD",
"n.	c #09A2FA",
"o.	c #0BA5F8",
"p.	c #0CA7F8",
"q.	c #0EA9F8",
"r.	c #0EA9F6",
"s.	c #07A1FA",
"t.	c #0DA7F8",
"u.	c #069FFB",
"v.	c #08A1FB",
"w.	c #0AA4FA",
"x.	c #13AEF4",
"y.	c #069EFC",
"z.	c #08A2FB",
"A.	c #0DA9F8",
"B.	c #0FAAF6",
"                                                                ",
"                                                                ",
"                      . + @ # $ % & * =                         ",
"                  - ; . . > @ , ' ) ! * = ~                     ",
"              { ] ^ - / ( _ > : < $ [ } | = ~ 1                 ",
"            2 3 { 4 ^ 5 6 7 _ @ : < $ [ ! 8 = ~ 1               ",
"            9 2 3 { 4 0 a b         c d [ ! 8 = e f             ",
"            g h 2 3 {                   ) [ ! 8 = e f           ",
"              i h j                         [ ! 8 = e 1         ",
"                                              [ ! 8 = e         ",
"                          { k 5 l 6             [ ! 8 = e       ",
"                      2 m 3 { k n o 7 .         ) [ p 8 q       ",
"                      i h m r s ^ n o t u     v w ) x p y z     ",
"                    A B C 9       D E o 7 u F G H w I x p y     ",
"                    J K L           ^ M N 6 u O P H w Q R !     ",
"                  S T J               U V / 6 u F : H W Q X     ",
"                  Y S Z               ` M 5 / 6  .+ : , W I     ",
"                  ..+.@.              #.U D - $.%.. > @ # &.    ",
"                    *.=.-.          h #.#.] D - $. .. > @ #     ",
"                    ;.>.,.@.      '.).2 #.!.] D - 6  .. ~.@     ",
"                      ;.{.,.@.].^./.g 9 2     ] (.5 b  ._ >     ",
"                      _.;.{.,.:.].<.[.}.        4 ^ a ; 7       ",
"                          |.1.2.3.].            { 4 ^ a ;       ",
"                                              2 3 { 4 ^         ",
"              4.5.6.                        g h j 3 { ]         ",
"            7.8.4.9.0.                  ].a.b.c.h m 3           ",
"            d.e.8.f.g.h.i.j.      ..k.l.:.J <.b.c.h             ",
"            m.d.e.8.f.n.h.o.p.q.r._...k.2.:.J <.B               ",
"              m.d.e.8.s.n.h.o.t.q.r._...k.2.:.J                 ",
"                  d.e.u.v.g.w.j.t.q.r._...x.                    ",
"                      y.4.z.n.h.j.t.A.B.                        ",
"                                                                "};
