/* XPM */
static char *commercium__[] = {
"64 64 219 2",
"  	c None",
". 	c #27C8E9",
"+ 	c #28C9E9",
"@ 	c #28CAE9",
"# 	c #29CAE8",
"$ 	c #2ACBE8",
"% 	c #2ACCE8",
"& 	c #2ACCE7",
"* 	c #2BCDE7",
"= 	c #2CCEE7",
"- 	c #2CCFE6",
"; 	c #2DD0E6",
"> 	c #2ED0E6",
", 	c #23C5EB",
"' 	c #25C5EB",
") 	c #25C5EA",
"! 	c #26C7EA",
"~ 	c #2ED1E6",
"{ 	c #2FD2E5",
"] 	c #21C1EC",
"^ 	c #22C2EC",
"/ 	c #23C3EC",
"( 	c #23C5EC",
"_ 	c #24C5EB",
": 	c #25C6EA",
"< 	c #25C7EA",
"[ 	c #29CBE9",
"} 	c #2CCDE7",
"| 	c #2CD0E6",
"1 	c #2FD2E6",
"2 	c #1FBEEE",
"3 	c #21C0ED",
"4 	c #24C3EC",
"5 	c #28CBE9",
"6 	c #29CBE8",
"7 	c #30D3E4",
"8 	c #30D4E4",
"9 	c #20BFED",
"0 	c #26C6EA",
"a 	c #2ED1E5",
"b 	c #2FD3E5",
"c 	c #31D4E4",
"d 	c #31D5E4",
"e 	c #1DBBEF",
"f 	c #1EBDEE",
"g 	c #1FBFEE",
"h 	c #20C0ED",
"i 	c #21C2EC",
"j 	c #24C4EB",
"k 	c #25C6EB",
"l 	c #27C9E9",
"m 	c #1CBAEF",
"n 	c #1DBCEF",
"o 	c #26C8EA",
"p 	c #2DCFE6",
"q 	c #32D5E3",
"r 	c #1BB9F0",
"s 	c #22C0ED",
"t 	c #2FD4E5",
"u 	c #30D4E5",
"v 	c #32D4E3",
"w 	c #32D6E3",
"x 	c #1BB9EF",
"y 	c #1DBAEF",
"z 	c #1DBDEE",
"A 	c #21C1ED",
"B 	c #22C1EC",
"C 	c #23C3EB",
"D 	c #28CAE8",
"E 	c #29CCE8",
"F 	c #2BCEE7",
"G 	c #2BCEE6",
"H 	c #2DCEE6",
"I 	c #1AB8F0",
"J 	c #1EBEEE",
"K 	c #2FD4E4",
"L 	c #30D5E4",
"M 	c #19B7F1",
"N 	c #1BB9F1",
"O 	c #1CBAF0",
"P 	c #1EBCEF",
"Q 	c #1FBDEE",
"R 	c #2DCEE7",
"S 	c #32D5E4",
"T 	c #19B6F1",
"U 	c #1AB8F1",
"V 	c #1DBDEF",
"W 	c #2DCFE7",
"X 	c #2ED3E5",
"Y 	c #30D3E5",
"Z 	c #1AB7F1",
"` 	c #1AB6F1",
" .	c #2BCFE7",
"..	c #2ED0E5",
"+.	c #2ED2E5",
"@.	c #23C2EC",
"#.	c #23C4EB",
"$.	c #1CBBEF",
"%.	c #1FBEED",
"&.	c #29CCE7",
"*.	c #2DD1E6",
"=.	c #30D2E4",
"-.	c #20BFEE",
";.	c #19B8F1",
">.	c #17B5F2",
",.	c #18B6F1",
"'.	c #28CBE8",
").	c #17B4F2",
"!.	c #19B5F2",
"~.	c #28C8E9",
"{.	c #16B3F3",
"].	c #27C7EA",
"^.	c #16B2F3",
"/.	c #16B4F2",
"(.	c #26C7E9",
"_.	c #15B1F4",
":.	c #15B2F3",
"<.	c #18B5F2",
"[.	c #19B5F1",
"}.	c #26C8E9",
"|.	c #13AFF4",
"1.	c #15B0F4",
"2.	c #15B2F4",
"3.	c #15B1F3",
"4.	c #16B3F2",
"5.	c #20C1ED",
"6.	c #24C3EB",
"7.	c #24C6EB",
"8.	c #13B0F4",
"9.	c #15B3F3",
"0.	c #24C5EA",
"a.	c #27C8EA",
"b.	c #29C9E8",
"c.	c #2BCCE8",
"d.	c #13AEF5",
"e.	c #15B3F4",
"f.	c #22C1ED",
"g.	c #22C4EC",
"h.	c #24C7EA",
"i.	c #29C9E9",
"j.	c #2BCDE8",
"k.	c #14AFF4",
"l.	c #1EBDEF",
"m.	c #20BEEE",
"n.	c #11ADF5",
"o.	c #12AEF5",
"p.	c #22C2ED",
"q.	c #14B0F4",
"r.	c #11ACF6",
"s.	c #11ADF6",
"t.	c #12ADF5",
"u.	c #13AEF4",
"v.	c #21BFED",
"w.	c #11AEF5",
"x.	c #1AB7F0",
"y.	c #10ACF6",
"z.	c #1CBCEF",
"A.	c #10ABF6",
"B.	c #13AFF5",
"C.	c #14B1F4",
"D.	c #16B1F3",
"E.	c #18B4F2",
"F.	c #18B6F2",
"G.	c #20BEED",
"H.	c #23C4EC",
"I.	c #14B0F5",
"J.	c #08A1FB",
"K.	c #09A2FA",
"L.	c #09A3FA",
"M.	c #07A0FB",
"N.	c #0AA3FA",
"O.	c #1DBCEE",
"P.	c #069EFC",
"Q.	c #079FFB",
"R.	c #0AA4F9",
"S.	c #059EFC",
"T.	c #069FFB",
"U.	c #0BA5F9",
"V.	c #1AB9F0",
"W.	c #049CFD",
"X.	c #059CFD",
"Y.	c #069FFC",
"Z.	c #08A1FA",
"`.	c #0AA1FA",
" +	c #0AA4FA",
".+	c #0AA5F9",
"++	c #0CA6F9",
"@+	c #039BFD",
"#+	c #069DFC",
"$+	c #06A0FC",
"%+	c #09A1FA",
"&+	c #0AA2FA",
"*+	c #0BA6F9",
"=+	c #0CA6F8",
"-+	c #0DA7F8",
";+	c #0EA8F7",
">+	c #0EAAF7",
",+	c #10ABF7",
"'+	c #17B4F3",
")+	c #059DFC",
"!+	c #0EA9F7",
"~+	c #0FAAF7",
"{+	c #14B1F3",
"]+	c #0CA7F8",
"^+	c #0DA8F8",
"/+	c #0EA8F8",
"(+	c #07A0FC",
"_+	c #0FA9F7",
":+	c #06A0FB",
"<+	c #049DFD",
"[+	c #08A2FA",
"}+	c #069EFB",
"|+	c #0AA3F9",
"1+	c #0CA8F8",
"2+	c #0DA9F7",
"3+	c #0FAAF6",
"4+	c #11ABF6",
"5+	c #11ACF5",
"6+	c #0BA4F9",
"                                                                                                                                ",
"                                                                                                                                ",
"                                                                                                                                ",
"                                              . . + @ # $ % & * = - ; ; >                                                       ",
"                                        , ' ) ! ! . + @ # $ % & * = - - ; ~ { {                                                 ",
"                                  ] ^ / ( _ ' : : < . @ @ [ % % & } = = | ~ 1 { { {                                             ",
"                              2 3 ] ^ ^ 4 _ ' : : ! . + @ 5 6 % & * = = - ; ~ { { { 7 8                                         ",
"                            2 2 9 3 ] ] ^ 4 _ ' ' 0 ! . + @ @ 6 % & * * = - ; a { { b 8 c d                                     ",
"                        e f f 2 g h 3 3 ] i j _ _ k 0 ! . l + @ 6 % * * * = - ; a a { b 8 c c                                   ",
"                      m e n n f 2 9 h h 3 ] / j j _ : 0 ! o . + @ 6 % % * * = p ; ; a { b 8 c d q                               ",
"                      r m e e n f 2 9 h h s ^ / / j _ : 0 0 ! . + @ 6 6 % * * = p p ; a { t u 8 v w                             ",
"                    r r x x y n z 2 9 9 h A B ^ ^ C j : 0 0 ! . + + D D E * * F G H ; a b b b 8 q w w                           ",
"                    I r r x m y n z J J 9 h ] ^                         # $ * F F F H ; { { { K L q w w                         ",
"                      M N O O O m e P P Q g                                   % * * F R ~ > > b b L S S q                       ",
"                      T M U U O O m n V                                           * * F W > > a X Y L L S                       ",
"                        T M Z I r O                                                 * * F ; > > a { Y Y 8 S                     ",
"                          ` Z I                                                       *  .- p > ..{ b Y 8 d d                   ",
"                                                                                          = = | > a +.{ Y 8 d                   ",
"                                                                                          * * - | ~ a a { Y 8 d                 ",
"                                                    2 9 3 A A ^ @.#.                        * } - ; ~ ~ a { Y 8                 ",
"                                                n f f 2 9 3 3 A ^ / #.#.                    & & = - ; ; ~ a { 7 8               ",
"                                            $.n n f f f %.3 3 A i / #.#.j '                 &.& * - | | *.a a =.8               ",
"                                          I O e e n f f 2 -.9 3 A ^ / / #.j '               E & & = - - ; ~ a { Y Y             ",
"                                        ;.U I O O e n f 2 2 2 9 3 ] ^ ^ / #._ '           @ @ % & * = = - ; ~ { { {             ",
"                                      >.,.U I r r m e n f 2 2 2 9 3 ] ] ^ / j _ ' ' : ! + + + '.% & & * = - ; a { {             ",
"                                      ).!.T U I I r m e           h 3 3 ] ^ / j _ _ ' 0 o ~.~.@ '.% & & * = - ; ~ a a           ",
"                                    {.{.).!.M U U r                 h h 3 ] ^ / j j _ k 0 ! ].+ @ 6 % % * * = - ; ; ~           ",
"                                    {.{.).!.M U U                     h 3 ] ^ / j j _ k 0 ! ! l @ 6 E % * * = - - ; ~           ",
"                                    ^.^.{./.T T                         h 3 ] ^ / / j _ : 0 0 (.l @ '.6 % * * = = p ;           ",
"                                  _.:.:.^.{.<.[.                          h 3 B ^ ^ / j _ : : 0 }.+ + @ 6 % * * * = p           ",
"                                  |.1.2.3.{.4.                            9 h 5.B B B ^ 6.7.7.) ].. ~.~.@ 6 6 * F F F           ",
"                                  |.8._.2.9.{.                            f 9 h 5.A B ^ 6.j _ 0.! a.. . ~.b.6 E c.* F           ",
"                                  d.8.|._.e.^.                            f -.h 5.5.f.B g.6.6.7.h.a.a.a.. i.6 E 6 j.F           ",
"                                  d.d.d.k._.:.                            l.f m.9 9 5.f.@.@.@._ _ : a.a.a.l i.# 6 6 %           ",
"                                  n.o.d.d.k.3.3.                          n P f 2 2 9 h p.@.@.C #.' : : ! a.l + + # $           ",
"                                    n.o.d.d.q._.                        O $.n P f f 2 9 5.p.p.@.C j ' ' : ! . l l + #           ",
"                                    r.s.t.d.u.q.q.                    I r O $.n P P f 2 v.A A ^ @.C j j ' : ! . l l +           ",
"                                    r.r.w.d.u.q.q._.                x.I r O $.n n P f 2 3 3 3 i @.C #.j ' : ! . . l +           ",
"                                      y.r.w.d.u.8.q._.:.          T Z Z I r O $.z.n f f g v.v.A i / #.#.j ' : ! ].. l           ",
"                                      A.A.r.w.B.B.8.q.3.^.{.{.).<.,.T T Z I r O $.$.  f f 2 2 3 A ^ / / #.j ' : : !             ",
"                                        A.A.n.o.o.B.8.q.3.^.^.{.).<.,.,.T Z I r           2 2 %.3 A i ^ / #.j ' ' !             ",
"                                          A.A.t.t.o.B.8.C._.3.^.{.).<.<.,.T U               f 2 %.3 ] ] ^ / #._ ' k             ",
"                                            y.r.r.t.o.B.C.C.C.D.^.{.E.E.F.,.                f 2 2 G.A 3 ] @.H._ j               ",
"                                                r.t.o.B.q.C.C.3.^.{.).).                    z 2 2 9 9 3 ] ^ / j j               ",
"                                                      o.B.I.q.C.3.^.                        $.f 2 2 %.9 3 ] ^ /                 ",
"                                                                                          y y n z 2 2 g h 3 ] ^                 ",
"                                                                                        r r r y n f 2 2 9 h 3                   ",
"                          J.J.K.L.                                                    M N r r x y n f f 2 9 h                   ",
"                        M.J.J.K.L.N.                                                F.M U r r x x e O.z J G.                    ",
"                      P.Q.Q.M.M.K.N.R.R.                                          ).E.T M ;.;.r x e y n f                       ",
"                      S.S.T.M.M.M.K.N.N.R.U.                                  {./.).).).M T T V.O m y y e                       ",
"                    W.X.S.S.P.Y.M.M.Z.`.K. +.+++                        d.8.1._.:.:.{.).<.!.!.;.U O O O                         ",
"                    @+@+X.P.#+Y.$+M.J.J.%+&+R.*+++++=+-+;+>+>+,+y.s.n.n.d.d.|.1.3.3.{.'+).<.<.T M I r                           ",
"                      @+W.)+)+P.Y.M.J.J.Z.&+R.U.U.++=+-+;+;+!+~+A.r.n.n.o.d.|.q.{+3.:.{.<.<.<.[.M I                             ",
"                      @+@+@+W.)+P.Y.M.J.J.%+ +R.R.U.++]+^+/+;+!+~+A.r.r.n.o.d.|.8.q.3.:.'+<.<.<.                                ",
"                        @+@+@+W.)+P.Y.(+J.J.%+N.N.R.U.=+]+^+^+;+_+~+A.A.r.n.o.d.|.8.q.3.9.'+'+                                  ",
"                            @+W.W.)+P.P.:+J.Z.K.K.N.R.U.=+]+]+^+!+_+~+~+A.r.n.o.d.B.8.q.3.:.                                    ",
"                                W.<+)+#+P.T.J.[+[+K.N.R.U.++=+]+^+!+_+_+~+A.r.n.o.o.B.q.                                        ",
"                                  <+)+#+#+}+M.[+[+[+K.|+U.++=+]+1+2+_+_+_+3+4+5+n.o.                                            ",
"                                        )+P.:+J.J.[+K.N.6+U.U.=+]+^+!+!+_+~+A.r.                                                ",
"                                              M.M.J.[+K.|+6+6+U.=+-+^+^+                                                        ",
"                                                                                                                                ",
"                                                                                                                                ",
"                                                                                                                                "};
